<svg width="29" height="33" viewBox="0 0 29 33" fill="none" xmlns="http://www.w3.org/2000/svg">
<path d="M26.5 30.2812H27.7489C28.2496 30.2812 28.5 30.5316 28.5 31.0324V32.2812H0.5V31.0324C0.5 30.5316 0.75037 30.2812 1.25111 30.2812H2.5V1.78347C2.5 1.36569 2.64519 1.01014 2.93556 0.716806C3.22889 0.426435 3.58444 0.28125 4.00222 0.28125H25.0022C25.417 0.28125 25.7711 0.426435 26.0644 0.716806C26.3548 1.01014 26.5 1.36569 26.5 1.78347V30.2812ZM8.5 5.03236V7.53014C8.5 8.03088 8.75037 8.28125 9.25111 8.28125H11.7489C12.2496 8.28125 12.5 8.03088 12.5 7.53014V5.03236C12.5 4.53162 12.2496 4.28125 11.7489 4.28125H9.25111C8.75037 4.28125 8.5 4.53162 8.5 5.03236ZM8.5 11.0324V13.5301C8.5 14.0309 8.75037 14.2812 9.25111 14.2812H11.7489C12.2496 14.2812 12.5 14.0309 12.5 13.5301V11.0324C12.5 10.5316 12.2496 10.2812 11.7489 10.2812H9.25111C8.75037 10.2812 8.5 10.5316 8.5 11.0324ZM9.25111 20.2812H11.7489C12.2496 20.2812 12.5 20.0309 12.5 19.5301V17.0324C12.5 16.5316 12.2496 16.2812 11.7489 16.2812H9.25111C8.75037 16.2812 8.5 16.5316 8.5 17.0324V19.5301C8.5 20.0309 8.75037 20.2812 9.25111 20.2812ZM12.5 30.2812H16.5V25.0324C16.5 24.5316 16.2496 24.2812 15.7489 24.2812H13.2511C12.7504 24.2812 12.5 24.5316 12.5 25.0324V30.2812ZM20.5 19.5301V17.0324C20.5 16.5316 20.2496 16.2812 19.7489 16.2812H17.2511C16.7504 16.2812 16.5 16.5316 16.5 17.0324V19.5301C16.5 20.0309 16.7504 20.2812 17.2511 20.2812H19.7489C20.2496 20.2812 20.5 20.0309 20.5 19.5301ZM20.5 13.5301V11.0324C20.5 10.5316 20.2496 10.2812 19.7489 10.2812H17.2511C16.7504 10.2812 16.5 10.5316 16.5 11.0324V13.5301C16.5 14.0309 16.7504 14.2812 17.2511 14.2812H19.7489C20.2496 14.2812 20.5 14.0309 20.5 13.5301ZM20.5 7.53014V5.03236C20.5 4.53162 20.2496 4.28125 19.7489 4.28125H17.2511C16.7504 4.28125 16.5 4.53162 16.5 5.03236V7.53014C16.5 8.03088 16.7504 8.28125 17.2511 8.28125H19.7489C20.2496 8.28125 20.5 8.03088 20.5 7.53014Z" fill="#B6B9BA"/>
</svg>
