<svg width="14" height="13" viewBox="0 0 14 13" fill="none" xmlns="http://www.w3.org/2000/svg">
<path d="M2.125 0.712402H11.75C12.1143 0.712402 12.4241 0.840087 12.6794 1.09546C12.9348 1.35083 13.0625 1.66064 13.0625 2.0249V11.6499C13.0625 12.0142 12.9348 12.324 12.6794 12.5793C12.4241 12.8347 12.1143 12.9624 11.75 12.9624H2.125C1.76074 12.9624 1.45093 12.8347 1.19556 12.5793C0.940185 12.324 0.8125 12.0142 0.8125 11.6499V2.0249C0.8125 1.66064 0.940185 1.35083 1.19556 1.09546C1.45093 0.840087 1.76074 0.712402 2.125 0.712402ZM3.38306 11.2124C5.56991 11.2124 7.43852 10.4379 8.98889 8.88879C10.538 7.33842 11.3125 5.46981 11.3125 3.28296C11.3125 3.06388 11.203 2.92712 10.9839 2.87268L9.20667 2.4624C9.18852 2.4624 9.1613 2.4624 9.125 2.4624C8.94222 2.4624 8.81454 2.54472 8.74194 2.70935L7.92139 4.62268C7.90324 4.67712 7.89417 4.73157 7.89417 4.78601C7.89417 4.91435 7.94926 5.02388 8.05944 5.11462L9.07056 5.9624C8.43278 7.33 7.43009 8.33268 6.0625 8.97046L5.21472 7.95935C5.12398 7.84916 5.01444 7.79407 4.88611 7.79407C4.83167 7.79407 4.77722 7.80314 4.72278 7.82129L2.80944 8.64185C2.64481 8.71444 2.5625 8.84212 2.5625 9.0249C2.5625 9.0612 2.5625 9.08842 2.5625 9.10657L2.97278 10.8838C3.02722 11.1029 3.16398 11.2124 3.38306 11.2124Z" fill="#B6B9BA"/>
</svg>
