<svg width="15" height="15" viewBox="0 0 15 15" fill="none" xmlns="http://www.w3.org/2000/svg">
<path d="M13.9375 2.54333V4.8125C14.1747 4.8125 14.3795 4.89935 14.5519 5.07306C14.7256 5.24546 14.8125 5.45028 14.8125 5.6875V13.5625C14.8125 13.7997 14.7256 14.0045 14.5519 14.1769C14.3795 14.3506 14.1747 14.4375 13.9375 14.4375H5.1875C4.95028 14.4375 4.74546 14.3506 4.57306 14.1769C4.39935 14.0045 4.3125 13.7997 4.3125 13.5625V1.3125C4.3125 1.07528 4.39935 0.870463 4.57306 0.698056C4.74546 0.524352 4.95028 0.4375 5.1875 0.4375H11.8317C12.0689 0.4375 12.2698 0.519815 12.4344 0.684444L13.6906 1.94056C13.8552 2.10519 13.9375 2.30611 13.9375 2.54333ZM8.6875 12.25V11.375C8.6875 11.248 8.64667 11.143 8.565 11.06C8.48204 10.9783 8.37704 10.9375 8.25 10.9375H7.375C7.24796 10.9375 7.14296 10.9783 7.06 11.06C6.97833 11.143 6.9375 11.248 6.9375 11.375V12.25C6.9375 12.377 6.97833 12.482 7.06 12.565C7.14296 12.6467 7.24796 12.6875 7.375 12.6875H8.25C8.37704 12.6875 8.48204 12.6467 8.565 12.565C8.64667 12.482 8.6875 12.377 8.6875 12.25ZM8.6875 8.75V7.875C8.6875 7.74796 8.64667 7.64296 8.565 7.56C8.48204 7.47833 8.37704 7.4375 8.25 7.4375H7.375C7.24796 7.4375 7.14296 7.47833 7.06 7.56C6.97833 7.64296 6.9375 7.74796 6.9375 7.875V8.75C6.9375 8.87704 6.97833 8.98204 7.06 9.065C7.14296 9.14667 7.24796 9.1875 7.375 9.1875H8.25C8.37704 9.1875 8.48204 9.14667 8.565 9.065C8.64667 8.98204 8.6875 8.87704 8.6875 8.75ZM12.1875 12.25V11.375C12.1875 11.248 12.1467 11.143 12.065 11.06C11.982 10.9783 11.877 10.9375 11.75 10.9375H10.875C10.748 10.9375 10.643 10.9783 10.56 11.06C10.4783 11.143 10.4375 11.248 10.4375 11.375V12.25C10.4375 12.377 10.4783 12.482 10.56 12.565C10.643 12.6467 10.748 12.6875 10.875 12.6875H11.75C11.877 12.6875 11.982 12.6467 12.065 12.565C12.1467 12.482 12.1875 12.377 12.1875 12.25ZM12.1875 8.75V7.875C12.1875 7.74796 12.1467 7.64296 12.065 7.56C11.982 7.47833 11.877 7.4375 11.75 7.4375H10.875C10.748 7.4375 10.643 7.47833 10.56 7.56C10.4783 7.64296 10.4375 7.74796 10.4375 7.875V8.75C10.4375 8.87704 10.4783 8.98204 10.56 9.065C10.643 9.14667 10.748 9.1875 10.875 9.1875H11.75C11.877 9.1875 11.982 9.14667 12.065 9.065C12.1467 8.98204 12.1875 8.87704 12.1875 8.75ZM6.0625 5.6875H12.1875V3.9375H10.875C10.748 3.9375 10.643 3.89667 10.56 3.815C10.4783 3.73204 10.4375 3.62704 10.4375 3.5V2.1875H6.0625V5.6875ZM1.6875 3.9375H2.5625C2.79972 3.9375 3.00454 4.02435 3.17694 4.19806C3.35065 4.37046 3.4375 4.57528 3.4375 4.8125V13.5625C3.4375 13.7997 3.35065 14.0045 3.17694 14.1769C3.00454 14.3506 2.79972 14.4375 2.5625 14.4375H1.6875C1.45028 14.4375 1.24546 14.3506 1.07306 14.1769C0.899352 14.0045 0.8125 13.7997 0.8125 13.5625V4.8125C0.8125 4.57528 0.899352 4.37046 1.07306 4.19806C1.24546 4.02435 1.45028 3.9375 1.6875 3.9375Z" fill="#B6B9BA"/>
</svg>
