<svg width="12" height="15" viewBox="0 0 12 15" fill="none" xmlns="http://www.w3.org/2000/svg">
<path d="M5.51611 13.9634C5.07796 13.3256 4.58083 12.6055 4.02472 11.8031C3.46861 11.002 3.07259 10.4375 2.83667 10.1095C2.59944 9.78023 2.32593 9.37449 2.01611 8.89227C1.7063 8.40875 1.50083 8.06653 1.39972 7.8656C1.29991 7.66597 1.19102 7.41125 1.07306 7.10144C0.953796 6.79162 0.880556 6.52264 0.853333 6.29449C0.826111 6.06635 0.8125 5.79736 0.8125 5.48755C0.8125 4.02922 1.32324 2.78996 2.34472 1.76977C3.36491 0.74829 4.60417 0.237549 6.0625 0.237549C7.52083 0.237549 8.76074 0.74829 9.78222 1.76977C10.8024 2.78996 11.3125 4.02922 11.3125 5.48755C11.3125 5.79736 11.2989 6.06635 11.2717 6.29449C11.2444 6.52264 11.1712 6.79162 11.0519 7.10144C10.934 7.41125 10.8251 7.66597 10.7253 7.8656C10.6242 8.06653 10.4187 8.40875 10.1089 8.89227C9.79907 9.37449 9.52556 9.78023 9.28833 10.1095C9.05241 10.4375 8.65639 11.002 8.10028 11.8031C7.54417 12.6055 7.04704 13.3256 6.60889 13.9634C6.48185 14.1462 6.29972 14.2375 6.0625 14.2375C5.82528 14.2375 5.64315 14.1462 5.51611 13.9634ZM4.51667 7.03338C4.94574 7.46116 5.46102 7.67505 6.0625 7.67505C6.66398 7.67505 7.17926 7.46116 7.60833 7.03338C8.03611 6.60431 8.25 6.08903 8.25 5.48755C8.25 4.88607 8.03611 4.37079 7.60833 3.94172C7.17926 3.51394 6.66398 3.30005 6.0625 3.30005C5.46102 3.30005 4.94574 3.51394 4.51667 3.94172C4.08889 4.37079 3.875 4.88607 3.875 5.48755C3.875 6.08903 4.08889 6.60431 4.51667 7.03338Z" fill="#B6B9BA"/>
</svg>
