<svg width="15" height="15" viewBox="0 0 15 15" fill="none" xmlns="http://www.w3.org/2000/svg">
<path d="M2.125 2.38745H13.5C13.8643 2.38745 14.1741 2.51514 14.4294 2.77051C14.6848 3.02588 14.8125 3.33569 14.8125 3.69995V11.575C14.8125 11.9392 14.6848 12.249 14.4294 12.5044C14.1741 12.7598 13.8643 12.8875 13.5 12.8875H2.125C1.76074 12.8875 1.45093 12.7598 1.19556 12.5044C0.940185 12.249 0.8125 11.9392 0.8125 11.575V3.69995C0.8125 3.33569 0.940185 3.02588 1.19556 2.77051C1.45093 2.51514 1.76074 2.38745 2.125 2.38745ZM13.5 4.8219V3.69995H2.125V4.8219C2.76278 5.33134 3.99296 6.29708 5.81556 7.71912C5.81556 7.73727 5.94324 7.85134 6.19861 8.06134C6.45398 8.27134 6.64583 8.41717 6.77417 8.49884C6.9012 8.58051 7.06972 8.67643 7.27972 8.78662C7.48972 8.89551 7.66732 8.94995 7.8125 8.94995C7.95898 8.94995 8.13657 8.89551 8.34528 8.78662C8.55528 8.67643 8.7238 8.58051 8.85083 8.49884C8.97917 8.41717 9.17102 8.27134 9.42639 8.06134C9.68176 7.85134 9.80944 7.73727 9.80944 7.71912C11.632 6.29708 12.8622 5.33134 13.5 4.8219ZM2.125 6.48828V11.575H13.5V6.48828C12.8622 6.99903 11.9049 7.75606 10.6281 8.7594C10.5918 8.77754 10.4602 8.88643 10.2333 9.08606C10.0052 9.28699 9.82694 9.43282 9.69861 9.52356C9.57157 9.6156 9.38944 9.72967 9.15222 9.86578C8.915 10.0032 8.6875 10.1037 8.46972 10.1672C8.25065 10.2307 8.03157 10.2625 7.8125 10.2625C7.59343 10.2625 7.36981 10.2307 7.14167 10.1672C6.91481 10.1037 6.68731 9.99865 6.45917 9.85217C6.23102 9.70699 6.05343 9.58838 5.92639 9.49634C5.79806 9.4056 5.61981 9.2643 5.39167 9.07245C5.16481 8.8819 5.03324 8.77754 4.99694 8.7594C3.72009 7.75606 2.76278 6.99903 2.125 6.48828Z" fill="#B6B9BA"/>
</svg>
