<svg width="50" height="51" viewBox="0 0 50 51" fill="none" xmlns="http://www.w3.org/2000/svg">
<rect width="50" height="50" transform="translate(0 0.501953)" fill="#B6B9BA"/>
<path d="M30.4512 22.4603C30.5253 22.5343 30.5624 22.6195 30.5624 22.7158C30.5624 22.8121 30.5253 22.8982 30.4512 22.9741L29.8928 23.5297C29.8187 23.6056 29.7335 23.6436 29.6372 23.6436C29.539 23.6436 29.4529 23.6056 29.3788 23.5297L24.9917 19.1436L20.6046 23.5297C20.5305 23.6056 20.4453 23.6436 20.349 23.6436C20.2527 23.6436 20.1666 23.6056 20.0906 23.5297L19.5349 22.9741C19.459 22.8982 19.421 22.8121 19.421 22.7158C19.421 22.6195 19.459 22.5343 19.5349 22.4603L24.7361 17.2575C24.8102 17.1834 24.8954 17.1464 24.9917 17.1464C25.0899 17.1464 25.176 17.1834 25.2501 17.2575L30.4512 22.4603Z" fill="#2A2F35"/>
<path d="M17.9355 28.3801V36.9114H16.1836V28.3801H17.9355ZM20.5605 28.3801V29.7571H13.5996V28.3801H20.5605ZM28.4062 32.4465V32.8508C28.4062 33.4993 28.3184 34.0813 28.1426 34.5969C27.9668 35.1125 27.7188 35.552 27.3984 35.9153C27.0781 36.2747 26.6953 36.55 26.25 36.7415C25.8086 36.9329 25.3184 37.0286 24.7793 37.0286C24.2441 37.0286 23.7539 36.9329 23.3086 36.7415C22.8672 36.55 22.4844 36.2747 22.1602 35.9153C21.8359 35.552 21.584 35.1125 21.4043 34.5969C21.2285 34.0813 21.1406 33.4993 21.1406 32.8508V32.4465C21.1406 31.7942 21.2285 31.2122 21.4043 30.7004C21.5801 30.1848 21.8281 29.7454 22.1484 29.3821C22.4727 29.0188 22.8555 28.7415 23.2969 28.55C23.7422 28.3586 24.2324 28.2629 24.7676 28.2629C25.3066 28.2629 25.7969 28.3586 26.2383 28.55C26.6836 28.7415 27.0664 29.0188 27.3867 29.3821C27.7109 29.7454 27.9609 30.1848 28.1367 30.7004C28.3164 31.2122 28.4062 31.7942 28.4062 32.4465ZM26.6309 32.8508V32.4348C26.6309 31.9817 26.5898 31.5833 26.5078 31.2395C26.4258 30.8958 26.3047 30.6067 26.1445 30.3723C25.9844 30.1379 25.7891 29.9622 25.5586 29.845C25.3281 29.7239 25.0645 29.6633 24.7676 29.6633C24.4707 29.6633 24.207 29.7239 23.9766 29.845C23.75 29.9622 23.5566 30.1379 23.3965 30.3723C23.2402 30.6067 23.1211 30.8958 23.0391 31.2395C22.957 31.5833 22.916 31.9817 22.916 32.4348V32.8508C22.916 33.3 22.957 33.6985 23.0391 34.0461C23.1211 34.3899 23.2422 34.6809 23.4023 34.9192C23.5625 35.1536 23.7578 35.3313 23.9883 35.4524C24.2188 35.5735 24.4824 35.634 24.7793 35.634C25.0762 35.634 25.3398 35.5735 25.5703 35.4524C25.8008 35.3313 25.9941 35.1536 26.1504 34.9192C26.3066 34.6809 26.4258 34.3899 26.5078 34.0461C26.5898 33.6985 26.6309 33.3 26.6309 32.8508ZM32.9941 33.8704H30.8203V32.4993H32.9941C33.3301 32.4993 33.6035 32.4446 33.8145 32.3352C34.0254 32.2219 34.1797 32.0657 34.2773 31.8665C34.375 31.6672 34.4238 31.4426 34.4238 31.1926C34.4238 30.9387 34.375 30.7024 34.2773 30.4836C34.1797 30.2649 34.0254 30.0891 33.8145 29.9563C33.6035 29.8235 33.3301 29.7571 32.9941 29.7571H31.4297V36.9114H29.6719V28.3801H32.9941C33.6621 28.3801 34.2344 28.5012 34.7109 28.7434C35.1914 28.9817 35.5586 29.3118 35.8125 29.7336C36.0664 30.1555 36.1934 30.6379 36.1934 31.1809C36.1934 31.7317 36.0664 32.2083 35.8125 32.6106C35.5586 33.0129 35.1914 33.3235 34.7109 33.5422C34.2344 33.761 33.6621 33.8704 32.9941 33.8704Z" fill="#2A2F35"/>
</svg>
