<svg width="60" height="58" viewBox="0 0 60 58" fill="none" xmlns="http://www.w3.org/2000/svg">
<g opacity="0.7">
<path d="M0 29C0 12.9837 12.9837 0 29 0H31C47.0163 0 60 12.9837 60 29C60 45.0163 47.0163 58 31 58H29C12.9837 58 0 45.0163 0 29Z" fill="#46C256"/>
<path d="M41.7667 16.5778C45.2556 20.0667 47 24.1556 47 28.8444C47 33.637 45.2815 37.7259 41.8444 41.1111C38.4074 44.4963 34.2926 46.1889 29.5 46.1889C26.5296 46.1889 23.7685 45.4852 21.2167 44.0778L12 46.5L14.5 37.5167C12.937 34.8611 12.1556 31.9704 12.1556 28.8444C12.1556 24.0519 13.8481 19.963 17.2333 16.5778C20.6185 13.1926 24.7074 11.5 29.5 11.5C34.2926 11.5 38.3815 13.1926 41.7667 16.5778ZM29.5 43.2944C33.4593 43.2944 36.8704 41.8759 39.7333 39.0389C42.6 36.2019 44.0333 32.8037 44.0333 28.8444C44.0852 24.9889 42.6259 21.6037 39.6556 18.6889C36.8444 15.8741 33.4593 14.4667 29.5 14.4667C25.5407 14.4667 22.1426 15.8741 19.3056 18.6889C16.4648 21.5 15.0444 24.8852 15.0444 28.8444C15.0444 31.6037 15.8 34.1556 17.3111 36.5L17.6278 37.0444L16.1389 42.3611L21.6111 40.9556L22.1556 41.2667C24.3963 42.6185 26.8444 43.2944 29.5 43.2944ZM37.3889 32.4389C37.9111 32.6981 38.1981 32.8796 38.25 32.9833C38.4056 33.2981 38.3019 34.0019 37.9389 35.0944C37.7833 35.5093 37.3796 35.9389 36.7278 36.3833C36.0759 36.8241 35.5148 37.0722 35.0444 37.1278C33.6926 37.3352 31.9482 36.9704 29.8111 36.0333C27.2593 34.937 24.8111 32.7481 22.4667 29.4667C21.2704 27.8519 20.6722 26.3685 20.6722 25.0167C20.6722 23.713 21.1667 22.4889 22.1556 21.3444C22.5222 21.0333 22.913 20.8778 23.3278 20.8778C23.7463 20.8778 24.0333 20.8778 24.1889 20.8778C24.6556 20.8778 24.9685 21.1111 25.1278 21.5778C26.013 23.7148 26.4556 24.7833 26.4556 24.7833C26.6111 25.0944 26.637 25.3537 26.5333 25.5611C26.3222 26.0315 26.0611 26.4352 25.75 26.7722C25.4389 27.113 25.2574 27.3093 25.2056 27.3611C25.1537 27.413 25.1796 27.5944 25.2833 27.9056C26.013 29.2611 26.8074 30.2778 27.6667 30.9556C28.5259 31.6296 29.6833 32.3315 31.1389 33.0611C31.5574 33.2722 31.8704 33.2463 32.0778 32.9833C32.7556 32.2019 33.2241 31.6296 33.4833 31.2667C33.6907 30.9519 34.0037 30.8741 34.4222 31.0333C34.837 31.1889 35.8259 31.6574 37.3889 32.4389Z" fill="white"/>
</g>
</svg>
